<svg width="34" height="35" viewBox="0 0 34 35" fill="none" xmlns="http://www.w3.org/2000/svg">
<path d="M28.7618 17.1926V10.6564C28.7618 9.47545 29.6274 8.5183 30.6954 8.5183C31.7634 8.5183 32.629 9.47545 32.629 10.6564V20.3377C32.629 23.5769 30.9739 26.5382 28.3539 27.9871L24.8947 29.8993V34.1755H18.0626V24.8712C18.0626 23.0631 19.3014 21.5486 20.9282 21.3683C20.9357 21.3659 23.8826 20.8674 25.3026 19.2972L26.7503 17.6972C27.2906 17.0997 28.0784 16.9245 28.7618 17.1926V17.1926Z" fill="#737A7E"/>
<path d="M20.8309 1.39129C24.3616 1.39129 25.592 4.98686 25.592 7.09289C25.592 11.3691 22.4132 13.7987 16.7736 19.2088C11.1339 13.7987 7.95508 11.3691 7.95508 7.09289C7.95508 4.98686 9.18549 1.39129 12.7162 1.39129C14.8838 1.39129 16.0852 3.14097 16.7736 4.53358C17.4619 3.14097 18.6633 1.39129 20.8309 1.39129Z" fill="#FF7B79"/>
<path d="M4.78528 17.1926C5.46848 16.9247 6.25636 17.0995 6.79686 17.6972L8.24448 19.2972C9.63615 20.836 12.6123 21.3662 12.6189 21.3683C14.2457 21.5486 15.4845 23.0631 15.4845 24.8712V34.1755H8.65247V29.8993L5.19327 27.9871C2.57325 26.5382 0.918091 23.5769 0.918091 20.3377V10.6564C0.918091 9.47545 1.7837 8.5183 2.85168 8.5183C3.91967 8.5183 4.78528 9.47545 4.78528 10.6564V17.1926Z" fill="#737A7E"/>
<path d="M26.2366 7.09289C26.2366 4.61298 24.769 0.678589 20.8309 0.678589C19.2129 0.678589 17.8518 1.52207 16.7736 3.18936C15.6953 1.52207 14.3342 0.678589 12.7162 0.678589C8.77808 0.678589 7.31055 4.61298 7.31055 7.09289C7.31055 11.3686 10.3284 14.0431 14.4511 17.9414C15.0569 18.5141 15.6833 19.1064 16.3512 19.7472C16.4724 19.8634 16.6229 19.9215 16.7736 19.9215C16.9242 19.9215 17.0747 19.8634 17.1959 19.7472C17.8638 19.1064 18.4902 18.5141 19.096 17.9414C23.4122 13.8603 26.2366 11.2782 26.2366 7.09289V7.09289ZM16.7736 18.2663C16.2585 17.7748 15.7673 17.3104 15.2889 16.8579C10.9755 12.7797 8.59961 10.5331 8.59961 7.09289C8.59961 4.7593 9.98026 2.10399 12.7162 2.10399C14.1441 2.10399 15.2862 3.01054 16.208 4.87539C16.321 5.10403 16.5379 5.24628 16.7736 5.24628C17.0092 5.24628 17.2261 5.10403 17.3391 4.87539C18.2609 3.01054 19.4031 2.10399 20.8309 2.10399C23.5286 2.10399 24.9475 4.71988 24.9475 7.09289C24.9475 10.5331 22.5716 12.7797 18.2582 16.858C17.7798 17.3104 17.2886 17.7748 16.7736 18.2663V18.2663Z" fill="black"/>
<path d="M4.90503 28.6246L8.00793 30.3398V34.1755C8.00793 34.569 8.29656 34.8882 8.65247 34.8882H15.4845C15.8404 34.8882 16.129 34.569 16.129 34.1755V24.8712C16.129 22.6876 14.6477 20.8769 12.6882 20.6596L12.6355 20.6534C11.5013 20.5276 9.49306 19.6698 8.7001 18.7931L7.25261 17.1931C6.76554 16.6546 6.11823 16.358 5.42981 16.358V10.6564C5.42981 9.08446 4.27326 7.80559 2.85168 7.80559C1.43011 7.80559 0.27356 9.08446 0.27356 10.6564V20.3377C0.27356 23.8452 2.06523 27.0541 4.90503 28.6246ZM1.56262 10.6564C1.56262 9.87042 2.1409 9.23099 2.85168 9.23099C3.56247 9.23099 4.14075 9.87042 4.14075 10.6564V16.7401C3.35468 17.2427 2.85168 18.1797 2.85168 19.2088C2.85168 19.97 3.11994 20.6858 3.60701 21.2243L6.90766 24.8748C7.15928 25.1531 7.5674 25.1531 7.81915 24.8748C8.07084 24.5966 8.07091 24.1453 7.81922 23.8669L4.51857 20.2164C4.27487 19.9471 4.14075 19.5892 4.14075 19.2088C4.14075 18.6056 4.48602 18.0653 5.00004 17.8646C5.0001 17.8646 5.00023 17.8645 5.00029 17.8644C5.00042 17.8643 5.00062 17.8644 5.00075 17.8643C5.44534 17.6898 5.9727 17.7937 6.34118 18.2012L7.78867 19.8012C9.28308 21.4537 12.5481 22.0754 12.5546 22.0774C13.8574 22.2218 14.8399 23.4229 14.8399 24.8712V33.4628H9.29693V29.8993C9.29693 29.6293 9.15894 29.3825 8.94064 29.2618L5.4815 27.3497C3.06432 26.0129 1.56262 23.3261 1.56262 20.3377V10.6564Z" fill="black"/>
<path d="M29.8575 27.6187C30.2135 27.6187 30.5021 27.2996 30.5021 26.906C30.5021 26.5123 30.2135 26.1933 29.8575 26.1933C29.5016 26.1933 29.213 26.5123 29.213 26.906C29.213 27.2996 29.5016 27.6187 29.8575 27.6187Z" fill="black"/>
<path d="M30.6954 7.80559C29.2739 7.80559 28.1173 9.08446 28.1173 10.6564V16.358C27.4289 16.358 26.7816 16.6546 26.2946 17.1931L24.8469 18.7932C24.0541 19.6699 22.0458 20.5277 20.9066 20.6539L20.8639 20.6591C18.8994 20.8769 17.4181 22.6877 17.4181 24.8712V34.1755C17.4181 34.569 17.7067 34.8882 18.0626 34.8882H24.8947C25.2506 34.8882 25.5392 34.569 25.5392 34.1755V30.3398L27.6487 29.1737C27.9671 28.9976 28.0962 28.5696 27.937 28.2175C27.7778 27.8655 27.3907 27.7226 27.0723 27.8987L24.6064 29.2618C24.3881 29.3825 24.2501 29.6293 24.2501 29.8993V33.4628H18.7072V24.8712C18.7072 23.4229 19.6896 22.2218 20.9975 22.0768L21.0402 22.0717C22.4382 21.9167 24.753 20.9128 25.7583 19.8013L27.206 18.2012C27.5755 17.7924 28.1039 17.6907 28.5463 17.8643C29.0604 18.065 29.4064 18.6056 29.4064 19.2088C29.4064 19.5892 29.2722 19.9471 29.0286 20.2165L25.728 23.867C25.4763 24.1453 25.4763 24.5966 25.728 24.8749C25.9796 25.1532 26.3878 25.1532 26.6395 24.8748L29.9402 21.2244C30.4272 20.6858 30.6954 19.97 30.6954 19.2088C30.6954 18.1797 30.1924 17.2427 29.4064 16.7401V10.6564C29.4064 9.87042 29.9846 9.23099 30.6954 9.23099C31.4062 9.23099 31.9845 9.87042 31.9845 10.6564V20.3377C31.9845 21.6417 31.6869 22.9362 31.1239 24.0814C30.9538 24.4272 31.0695 24.8599 31.3822 25.0479C31.6949 25.2359 32.0864 25.1082 32.2564 24.7622C32.9218 23.4087 33.2736 21.8788 33.2736 20.3377V10.6564C33.2736 9.08446 32.117 7.80559 30.6954 7.80559Z" fill="black"/>
</svg>
